<svg xmlns="http://www.w3.org/2000/svg" xmlns:xlink="http://www.w3.org/1999/xlink" width="500" zoomAndPan="magnify" viewBox="0 0 375 374.999991" height="500" preserveAspectRatio="xMidYMid meet" version="1.0"><defs><g/><clipPath id="fd14cb71b3"><path d="M 64.421875 182.546875 L 310.578125 182.546875 L 310.578125 209.097656 L 64.421875 209.097656 Z M 64.421875 182.546875 " clip-rule="nonzero"/></clipPath></defs><rect x="-37.5" width="450" fill="#ffffff" y="-37.499999" height="449.999989" fill-opacity="1"/><rect x="-37.5" width="450" fill="#f4ece0" y="-37.499999" height="449.999989" fill-opacity="1"/><g fill="#000000" fill-opacity="1"><g transform="translate(90.437512, 239.999984)"><g><path d="M 54.90625 2.703125 C 45.195312 2.703125 36.414062 0.726562 28.5625 -3.21875 C 20.71875 -7.175781 14.492188 -13.050781 9.890625 -20.84375 C 5.296875 -28.644531 3 -38.195312 3 -49.5 C 3 -58.101562 4.398438 -65.65625 7.203125 -72.15625 C 10.003906 -78.65625 13.828125 -84.101562 18.671875 -88.5 C 23.523438 -92.894531 29.125 -96.191406 35.46875 -98.390625 C 41.820312 -100.597656 48.550781 -101.703125 55.65625 -101.703125 C 61.351562 -101.703125 66.597656 -101.050781 71.390625 -99.75 C 76.191406 -98.445312 80.695312 -96.644531 84.90625 -94.34375 L 85.5 -75.90625 L 84 -75.90625 L 76.5 -87.90625 C 75.5 -89.800781 74.398438 -91.523438 73.203125 -93.078125 C 72.003906 -94.628906 70.503906 -95.800781 68.703125 -96.59375 C 67.203125 -97.300781 65.722656 -97.828125 64.265625 -98.171875 C 62.816406 -98.523438 60.992188 -98.703125 58.796875 -98.703125 C 52.992188 -98.703125 47.71875 -97.148438 42.96875 -94.046875 C 38.21875 -90.953125 34.414062 -85.828125 31.5625 -78.671875 C 28.71875 -71.523438 27.296875 -61.75 27.296875 -49.34375 C 27.296875 -37.050781 28.644531 -27.328125 31.34375 -20.171875 C 34.050781 -13.023438 37.726562 -7.925781 42.375 -4.875 C 47.019531 -1.820312 52.242188 -0.296875 58.046875 -0.296875 C 61.242188 -0.296875 63.789062 -0.519531 65.6875 -0.96875 C 67.59375 -1.425781 69.5 -2.101562 71.40625 -3 C 73.300781 -3.800781 74.75 -4.972656 75.75 -6.515625 C 76.75 -8.066406 77.648438 -9.742188 78.453125 -11.546875 L 85.046875 -26.25 L 86.546875 -26.25 L 86.09375 -4.796875 C 81.894531 -2.597656 77.195312 -0.800781 72 0.59375 C 66.800781 2 61.101562 2.703125 54.90625 2.703125 Z M 54.90625 2.703125 "/></g></g></g><g fill="#000000" fill-opacity="1"><g transform="translate(187.337526, 239.999984)"><g><path d="M 3.296875 0 L 3.296875 -1.5 L 6.453125 -2.703125 C 9.648438 -4.003906 11.25 -6.550781 11.25 -10.34375 L 11.25 -88.65625 C 11.25 -92.65625 9.648438 -95.203125 6.453125 -96.296875 L 3.296875 -97.5 L 3.296875 -99 L 42.90625 -99 C 53.5 -99 62.617188 -97.023438 70.265625 -93.078125 C 77.921875 -89.128906 83.820312 -83.476562 87.96875 -76.125 C 92.125 -68.769531 94.203125 -59.945312 94.203125 -49.65625 C 94.203125 -39.15625 91.953125 -30.203125 87.453125 -22.796875 C 82.953125 -15.398438 76.675781 -9.75 68.625 -5.84375 C 60.570312 -1.945312 51.097656 0 40.203125 0 Z M 33.75 -3 L 40.203125 -3 C 47.398438 -3 53.195312 -4.421875 57.59375 -7.265625 C 62 -10.117188 65.222656 -14.921875 67.265625 -21.671875 C 69.316406 -28.421875 70.34375 -37.695312 70.34375 -49.5 C 70.34375 -61.300781 69.316406 -70.578125 67.265625 -77.328125 C 65.222656 -84.078125 62.050781 -88.875 57.75 -91.71875 C 53.445312 -94.570312 47.796875 -96 40.796875 -96 L 33.75 -96 Z M 33.75 -3 "/></g></g></g><g clip-path="url(#fd14cb71b3)"><path fill="#f4ece0" d="M 64.421875 182.546875 L 310.53125 182.546875 L 310.53125 209.097656 L 64.421875 209.097656 Z M 64.421875 182.546875 " fill-opacity="1" fill-rule="nonzero"/></g><g fill="#000000" fill-opacity="1"><g transform="translate(77.294544, 200.626876)"><g><path d="M 3.765625 -0.65625 C 4.234375 -0.65625 4.644531 -0.773438 5 -1.015625 C 5.363281 -1.253906 5.628906 -1.578125 5.796875 -1.984375 L 6.59375 -1.984375 C 6.375 -1.359375 6.007812 -0.863281 5.5 -0.5 C 4.957031 -0.113281 4.320312 0.078125 3.59375 0.078125 C 2.625 0.078125 1.835938 -0.25 1.234375 -0.90625 C 0.671875 -1.539062 0.390625 -2.34375 0.390625 -3.3125 C 0.390625 -4.28125 0.671875 -5.078125 1.234375 -5.703125 C 1.835938 -6.367188 2.625 -6.703125 3.59375 -6.703125 C 4.320312 -6.703125 4.957031 -6.507812 5.5 -6.125 C 6.007812 -5.757812 6.375 -5.265625 6.59375 -4.640625 L 5.796875 -4.640625 C 5.628906 -5.046875 5.363281 -5.367188 5 -5.609375 C 4.644531 -5.847656 4.226562 -5.96875 3.75 -5.96875 C 3.28125 -5.96875 2.890625 -5.898438 2.578125 -5.765625 C 2.265625 -5.628906 2.003906 -5.441406 1.796875 -5.203125 C 1.359375 -4.710938 1.140625 -4.082031 1.140625 -3.3125 C 1.140625 -2.539062 1.359375 -1.910156 1.796875 -1.421875 C 2.242188 -0.910156 2.898438 -0.65625 3.765625 -0.65625 Z M 3.765625 -0.65625 "/></g></g></g><g fill="#000000" fill-opacity="1"><g transform="translate(90.891901, 200.626876)"><g><path d="M 3.75 -6.703125 C 4.738281 -6.703125 5.550781 -6.367188 6.1875 -5.703125 C 6.800781 -5.066406 7.109375 -4.269531 7.109375 -3.3125 C 7.109375 -2.351562 6.800781 -1.550781 6.1875 -0.90625 C 5.550781 -0.25 4.738281 0.078125 3.75 0.078125 C 2.757812 0.078125 1.945312 -0.25 1.3125 -0.90625 C 0.695312 -1.550781 0.390625 -2.351562 0.390625 -3.3125 C 0.390625 -4.269531 0.695312 -5.066406 1.3125 -5.703125 C 1.945312 -6.367188 2.757812 -6.703125 3.75 -6.703125 Z M 3.75 -0.65625 C 4.539062 -0.65625 5.175781 -0.910156 5.65625 -1.421875 C 6.125 -1.910156 6.359375 -2.539062 6.359375 -3.3125 C 6.359375 -4.070312 6.125 -4.703125 5.65625 -5.203125 C 5.175781 -5.710938 4.539062 -5.96875 3.75 -5.96875 C 2.957031 -5.96875 2.320312 -5.710938 1.84375 -5.203125 C 1.375 -4.703125 1.140625 -4.070312 1.140625 -3.3125 C 1.140625 -2.539062 1.375 -1.910156 1.84375 -1.421875 C 2.320312 -0.910156 2.957031 -0.65625 3.75 -0.65625 Z M 3.75 -0.65625 "/></g></g></g><g fill="#000000" fill-opacity="1"><g transform="translate(105.089031, 200.626876)"><g><path d="M 6.515625 -6.625 L 6.515625 0 L 5.65625 0 L 1.5625 -5.59375 L 1.5625 0 L 0.8125 0 L 0.8125 -6.625 L 1.6875 -6.625 L 5.765625 -1.046875 L 5.765625 -6.625 Z M 6.515625 -6.625 "/></g></g></g><g fill="#000000" fill-opacity="1"><g transform="translate(119.116227, 200.626876)"><g><path d="M 1.5625 -5.59375 C 1.4375 -5.488281 1.351562 -5.367188 1.3125 -5.234375 C 1.269531 -5.109375 1.25 -4.96875 1.25 -4.8125 C 1.25 -4.664062 1.3125 -4.523438 1.4375 -4.390625 C 1.570312 -4.265625 1.742188 -4.160156 1.953125 -4.078125 C 2.171875 -3.992188 2.414062 -3.914062 2.6875 -3.84375 C 2.957031 -3.78125 3.234375 -3.710938 3.515625 -3.640625 C 3.804688 -3.578125 4.085938 -3.5 4.359375 -3.40625 C 4.628906 -3.3125 4.875 -3.195312 5.09375 -3.0625 C 5.5625 -2.757812 5.796875 -2.347656 5.796875 -1.828125 C 5.796875 -1.210938 5.5625 -0.738281 5.09375 -0.40625 C 4.632812 -0.0820312 4 0.078125 3.1875 0.078125 C 2.257812 0.078125 1.550781 -0.113281 1.0625 -0.5 C 0.625 -0.84375 0.375 -1.335938 0.3125 -1.984375 L 1.09375 -1.984375 C 1.125 -1.523438 1.347656 -1.175781 1.765625 -0.9375 C 2.117188 -0.726562 2.59375 -0.625 3.1875 -0.625 C 4.425781 -0.625 5.046875 -1.015625 5.046875 -1.796875 C 5.046875 -2.066406 4.929688 -2.273438 4.703125 -2.421875 C 4.484375 -2.578125 4.207031 -2.703125 3.875 -2.796875 C 3.539062 -2.898438 3.175781 -2.992188 2.78125 -3.078125 C 2.394531 -3.171875 2.03125 -3.285156 1.6875 -3.421875 C 1.351562 -3.554688 1.070312 -3.734375 0.84375 -3.953125 C 0.625 -4.179688 0.515625 -4.488281 0.515625 -4.875 C 0.515625 -5.414062 0.722656 -5.851562 1.140625 -6.1875 C 1.554688 -6.53125 2.179688 -6.703125 3.015625 -6.703125 C 3.847656 -6.703125 4.492188 -6.507812 4.953125 -6.125 C 5.378906 -5.78125 5.601562 -5.34375 5.625 -4.8125 L 4.859375 -4.8125 C 4.796875 -5.351562 4.441406 -5.71875 3.796875 -5.90625 C 3.566406 -5.96875 3.285156 -6 2.953125 -6 C 2.617188 -6 2.335938 -5.957031 2.109375 -5.875 C 1.878906 -5.800781 1.695312 -5.707031 1.5625 -5.59375 Z M 1.5625 -5.59375 "/></g></g></g><g fill="#000000" fill-opacity="1"><g transform="translate(131.963882, 200.626876)"><g><path d="M 5.515625 -5.90625 L 3.203125 -5.90625 L 3.203125 0 L 2.453125 0 L 2.453125 -5.90625 L 0.140625 -5.90625 L 0.140625 -6.625 L 5.515625 -6.625 Z M 5.515625 -5.90625 "/></g></g></g><g fill="#000000" fill-opacity="1"><g transform="translate(144.311736, 200.626876)"><g><path d="M 6.59375 0 L 5.765625 0 L 4.953125 -1.921875 L 1.671875 -1.921875 L 0.859375 0 L 0.03125 0 L 2.84375 -6.625 L 3.78125 -6.625 Z M 4.65625 -2.609375 L 3.3125 -5.84375 L 1.953125 -2.609375 Z M 4.65625 -2.609375 "/></g></g></g><g fill="#000000" fill-opacity="1"><g transform="translate(157.629201, 200.626876)"><g><path d="M 6.515625 -6.625 L 6.515625 0 L 5.65625 0 L 1.5625 -5.59375 L 1.5625 0 L 0.8125 0 L 0.8125 -6.625 L 1.6875 -6.625 L 5.765625 -1.046875 L 5.765625 -6.625 Z M 6.515625 -6.625 "/></g></g></g><g fill="#000000" fill-opacity="1"><g transform="translate(171.656396, 200.626876)"><g><path d="M 1.203125 -0.703125 L 5.53125 -0.703125 L 5.53125 0 L 0.296875 0 L 0.296875 -0.703125 L 4.609375 -5.921875 L 0.34375 -5.921875 L 0.34375 -6.625 L 5.53125 -6.625 L 5.53125 -5.90625 Z M 1.203125 -0.703125 "/></g></g></g><g fill="#000000" fill-opacity="1"><g transform="translate(184.194176, 200.626876)"><g><path d="M 6.59375 0 L 5.765625 0 L 4.953125 -1.921875 L 1.671875 -1.921875 L 0.859375 0 L 0.03125 0 L 2.84375 -6.625 L 3.78125 -6.625 Z M 4.65625 -2.609375 L 3.3125 -5.84375 L 1.953125 -2.609375 Z M 4.65625 -2.609375 "/></g></g></g><g fill="#000000" fill-opacity="1"><g transform="translate(197.511641, 200.626876)"><g><path d="M 0.984375 -6.875 L 1.953125 -6.875 L 1.078125 -4.75 L 0.40625 -4.75 Z M 0.984375 -6.875 "/></g></g></g><g fill="#000000" fill-opacity="1"><g transform="translate(206.32089, 200.626876)"><g><path d="M 1.5625 -5.59375 C 1.4375 -5.488281 1.351562 -5.367188 1.3125 -5.234375 C 1.269531 -5.109375 1.25 -4.96875 1.25 -4.8125 C 1.25 -4.664062 1.3125 -4.523438 1.4375 -4.390625 C 1.570312 -4.265625 1.742188 -4.160156 1.953125 -4.078125 C 2.171875 -3.992188 2.414062 -3.914062 2.6875 -3.84375 C 2.957031 -3.78125 3.234375 -3.710938 3.515625 -3.640625 C 3.804688 -3.578125 4.085938 -3.5 4.359375 -3.40625 C 4.628906 -3.3125 4.875 -3.195312 5.09375 -3.0625 C 5.5625 -2.757812 5.796875 -2.347656 5.796875 -1.828125 C 5.796875 -1.210938 5.5625 -0.738281 5.09375 -0.40625 C 4.632812 -0.0820312 4 0.078125 3.1875 0.078125 C 2.257812 0.078125 1.550781 -0.113281 1.0625 -0.5 C 0.625 -0.84375 0.375 -1.335938 0.3125 -1.984375 L 1.09375 -1.984375 C 1.125 -1.523438 1.347656 -1.175781 1.765625 -0.9375 C 2.117188 -0.726562 2.59375 -0.625 3.1875 -0.625 C 4.425781 -0.625 5.046875 -1.015625 5.046875 -1.796875 C 5.046875 -2.066406 4.929688 -2.273438 4.703125 -2.421875 C 4.484375 -2.578125 4.207031 -2.703125 3.875 -2.796875 C 3.539062 -2.898438 3.175781 -2.992188 2.78125 -3.078125 C 2.394531 -3.171875 2.03125 -3.285156 1.6875 -3.421875 C 1.351562 -3.554688 1.070312 -3.734375 0.84375 -3.953125 C 0.625 -4.179688 0.515625 -4.488281 0.515625 -4.875 C 0.515625 -5.414062 0.722656 -5.851562 1.140625 -6.1875 C 1.554688 -6.53125 2.179688 -6.703125 3.015625 -6.703125 C 3.847656 -6.703125 4.492188 -6.507812 4.953125 -6.125 C 5.378906 -5.78125 5.601562 -5.34375 5.625 -4.8125 L 4.859375 -4.8125 C 4.796875 -5.351562 4.441406 -5.71875 3.796875 -5.90625 C 3.566406 -5.96875 3.285156 -6 2.953125 -6 C 2.617188 -6 2.335938 -5.957031 2.109375 -5.875 C 1.878906 -5.800781 1.695312 -5.707031 1.5625 -5.59375 Z M 1.5625 -5.59375 "/></g></g></g><g fill="#000000" fill-opacity="1"><g transform="translate(219.168542, 200.626876)"><g/></g></g><g fill="#000000" fill-opacity="1"><g transform="translate(227.997784, 200.626876)"><g><path d="M 3.59375 -6.625 C 3.988281 -6.625 4.367188 -6.546875 4.734375 -6.390625 C 5.109375 -6.242188 5.429688 -6.023438 5.703125 -5.734375 C 6.328125 -5.109375 6.640625 -4.300781 6.640625 -3.3125 C 6.640625 -2.320312 6.328125 -1.507812 5.703125 -0.875 C 5.429688 -0.59375 5.109375 -0.375 4.734375 -0.21875 C 4.367188 -0.0703125 3.988281 0 3.59375 0 L 0.8125 0 L 0.8125 -6.625 Z M 3.5625 -0.703125 C 4.257812 -0.703125 4.828125 -0.960938 5.265625 -1.484375 C 5.679688 -1.972656 5.890625 -2.582031 5.890625 -3.3125 C 5.890625 -4.039062 5.679688 -4.648438 5.265625 -5.140625 C 4.828125 -5.648438 4.257812 -5.90625 3.5625 -5.90625 L 1.5625 -5.90625 L 1.5625 -0.703125 Z M 3.5625 -0.703125 "/></g></g></g><g fill="#000000" fill-opacity="1"><g transform="translate(241.735088, 200.626876)"><g><path d="M 1.5625 -5.90625 L 1.5625 -3.6875 L 5.234375 -3.6875 L 5.234375 -2.953125 L 1.5625 -2.953125 L 1.5625 -0.71875 L 5.6875 -0.71875 L 5.6875 0 L 0.8125 0 L 0.8125 -6.625 L 5.6875 -6.625 L 5.6875 -5.90625 Z M 1.5625 -5.90625 "/></g></g></g><g fill="#000000" fill-opacity="1"><g transform="translate(254.51277, 200.626876)"><g><path d="M 1.5625 -5.59375 C 1.4375 -5.488281 1.351562 -5.367188 1.3125 -5.234375 C 1.269531 -5.109375 1.25 -4.96875 1.25 -4.8125 C 1.25 -4.664062 1.3125 -4.523438 1.4375 -4.390625 C 1.570312 -4.265625 1.742188 -4.160156 1.953125 -4.078125 C 2.171875 -3.992188 2.414062 -3.914062 2.6875 -3.84375 C 2.957031 -3.78125 3.234375 -3.710938 3.515625 -3.640625 C 3.804688 -3.578125 4.085938 -3.5 4.359375 -3.40625 C 4.628906 -3.3125 4.875 -3.195312 5.09375 -3.0625 C 5.5625 -2.757812 5.796875 -2.347656 5.796875 -1.828125 C 5.796875 -1.210938 5.5625 -0.738281 5.09375 -0.40625 C 4.632812 -0.0820312 4 0.078125 3.1875 0.078125 C 2.257812 0.078125 1.550781 -0.113281 1.0625 -0.5 C 0.625 -0.84375 0.375 -1.335938 0.3125 -1.984375 L 1.09375 -1.984375 C 1.125 -1.523438 1.347656 -1.175781 1.765625 -0.9375 C 2.117188 -0.726562 2.59375 -0.625 3.1875 -0.625 C 4.425781 -0.625 5.046875 -1.015625 5.046875 -1.796875 C 5.046875 -2.066406 4.929688 -2.273438 4.703125 -2.421875 C 4.484375 -2.578125 4.207031 -2.703125 3.875 -2.796875 C 3.539062 -2.898438 3.175781 -2.992188 2.78125 -3.078125 C 2.394531 -3.171875 2.03125 -3.285156 1.6875 -3.421875 C 1.351562 -3.554688 1.070312 -3.734375 0.84375 -3.953125 C 0.625 -4.179688 0.515625 -4.488281 0.515625 -4.875 C 0.515625 -5.414062 0.722656 -5.851562 1.140625 -6.1875 C 1.554688 -6.53125 2.179688 -6.703125 3.015625 -6.703125 C 3.847656 -6.703125 4.492188 -6.507812 4.953125 -6.125 C 5.378906 -5.78125 5.601562 -5.34375 5.625 -4.8125 L 4.859375 -4.8125 C 4.796875 -5.351562 4.441406 -5.71875 3.796875 -5.90625 C 3.566406 -5.96875 3.285156 -6 2.953125 -6 C 2.617188 -6 2.335938 -5.957031 2.109375 -5.875 C 1.878906 -5.800781 1.695312 -5.707031 1.5625 -5.59375 Z M 1.5625 -5.59375 "/></g></g></g><g fill="#000000" fill-opacity="1"><g transform="translate(267.360421, 200.626876)"><g><path d="M 1.5625 0 L 0.8125 0 L 0.8125 -6.625 L 1.5625 -6.625 Z M 1.5625 0 "/></g></g></g><g fill="#000000" fill-opacity="1"><g transform="translate(276.429577, 200.626876)"><g><path d="M 1.28125 -5.703125 C 1.5625 -6.015625 1.898438 -6.257812 2.296875 -6.4375 C 2.703125 -6.613281 3.117188 -6.703125 3.546875 -6.703125 C 3.972656 -6.703125 4.34375 -6.65625 4.65625 -6.5625 C 4.96875 -6.46875 5.25 -6.34375 5.5 -6.1875 C 6.03125 -5.84375 6.414062 -5.382812 6.65625 -4.8125 L 5.84375 -4.8125 C 5.644531 -5.175781 5.363281 -5.457031 5 -5.65625 C 4.644531 -5.863281 4.238281 -5.96875 3.78125 -5.96875 C 3.332031 -5.96875 2.945312 -5.898438 2.625 -5.765625 C 2.3125 -5.628906 2.039062 -5.441406 1.8125 -5.203125 C 1.363281 -4.703125 1.140625 -4.070312 1.140625 -3.3125 C 1.140625 -2.539062 1.363281 -1.910156 1.8125 -1.421875 C 2.28125 -0.910156 2.90625 -0.65625 3.6875 -0.65625 C 4.3125 -0.65625 4.851562 -0.847656 5.3125 -1.234375 C 5.789062 -1.640625 6.03125 -2.175781 6.03125 -2.84375 L 3.609375 -2.84375 L 3.609375 -3.515625 L 6.71875 -3.515625 L 6.71875 0 L 6.03125 0 L 6.03125 -1.171875 C 5.644531 -0.597656 5.117188 -0.210938 4.453125 -0.015625 C 4.203125 0.046875 3.875 0.078125 3.46875 0.078125 C 3.070312 0.078125 2.671875 -0.0078125 2.265625 -0.1875 C 1.867188 -0.363281 1.53125 -0.601562 1.25 -0.90625 C 0.675781 -1.53125 0.390625 -2.332031 0.390625 -3.3125 C 0.390625 -4.269531 0.6875 -5.066406 1.28125 -5.703125 Z M 1.28125 -5.703125 "/></g></g></g><g fill="#000000" fill-opacity="1"><g transform="translate(290.356807, 200.626876)"><g><path d="M 6.515625 -6.625 L 6.515625 0 L 5.65625 0 L 1.5625 -5.59375 L 1.5625 0 L 0.8125 0 L 0.8125 -6.625 L 1.6875 -6.625 L 5.765625 -1.046875 L 5.765625 -6.625 Z M 6.515625 -6.625 "/></g></g></g><g fill="#000000" fill-opacity="1"><g transform="translate(165.516329, 265.483517)"><g><path d="M 5 -5.296875 L 2.859375 0 L 2.171875 0 L 0.03125 -5.296875 L 0.6875 -5.296875 L 2.515625 -0.6875 L 4.34375 -5.296875 Z M 5 -5.296875 "/></g></g></g><g fill="#000000" fill-opacity="1"><g transform="translate(175.332673, 265.483517)"><g><path d="M 5.265625 0 L 4.609375 0 L 3.953125 -1.53125 L 1.34375 -1.53125 L 0.6875 0 L 0.03125 0 L 2.265625 -5.296875 L 3.03125 -5.296875 Z M 3.734375 -2.09375 L 2.640625 -4.671875 L 1.5625 -2.09375 Z M 3.734375 -2.09375 "/></g></g></g><g fill="#000000" fill-opacity="1"><g transform="translate(185.421028, 265.483517)"><g><path d="M 5.09375 -5.296875 L 5.09375 -2.28125 C 5.09375 -1.570312 4.878906 -1.003906 4.453125 -0.578125 C 4.035156 -0.148438 3.492188 0.0625 2.828125 0.0625 C 2.171875 0.0625 1.628906 -0.148438 1.203125 -0.578125 C 0.785156 -1.003906 0.578125 -1.570312 0.578125 -2.28125 L 0.578125 -5.296875 L 1.1875 -5.296875 L 1.1875 -2.265625 C 1.1875 -1.691406 1.359375 -1.242188 1.703125 -0.921875 C 1.992188 -0.648438 2.367188 -0.515625 2.828125 -0.515625 C 3.296875 -0.515625 3.675781 -0.648438 3.96875 -0.921875 C 4.3125 -1.242188 4.484375 -1.691406 4.484375 -2.265625 L 4.484375 -5.296875 Z M 5.09375 -5.296875 "/></g></g></g><g fill="#000000" fill-opacity="1"><g transform="translate(195.885393, 265.483517)"><g><path d="M 1.25 -5.296875 L 1.25 -0.578125 L 4.140625 -0.578125 L 4.140625 0 L 0.640625 0 L 0.640625 -5.296875 Z M 1.25 -5.296875 "/></g></g></g><g fill="#000000" fill-opacity="1"><g transform="translate(204.941703, 265.483517)"><g><path d="M 4.40625 -4.71875 L 2.5625 -4.71875 L 2.5625 0 L 1.953125 0 L 1.953125 -4.71875 L 0.109375 -4.71875 L 0.109375 -5.296875 L 4.40625 -5.296875 Z M 4.40625 -4.71875 "/></g></g></g></svg>