<svg width="47" height="47" viewBox="0 0 47 47" fill="none" xmlns="http://www.w3.org/2000/svg">
<g clip-path="url(#clip0_17_32)">
<path d="M42.36 0H28.14C25.5774 0 23.5 2.0774 23.5 4.64V4.65C23.5 7.2126 25.5774 9.29 28.14 9.29H42.36C44.9226 9.29 47 7.2126 47 4.65V4.64C47 2.0774 44.9226 0 42.36 0Z" fill="#151E3F"/>
<path d="M5.05003 0H4.92003C2.35743 0 0.280029 2.0774 0.280029 4.64V4.65C0.280029 7.2126 2.35743 9.29 4.92003 9.29H5.05003C7.61263 9.29 9.69003 7.2126 9.69003 4.65V4.64C9.69003 2.0774 7.61263 0 5.05003 0Z" fill="#151E3F"/>
<path d="M42.29 37.59H42.16C39.5974 37.59 37.52 39.6674 37.52 42.23V42.24C37.52 44.8026 39.5974 46.88 42.16 46.88H42.29C44.8526 46.88 46.93 44.8026 46.93 42.24V42.23C46.93 39.6674 44.8526 37.59 42.29 37.59Z" fill="#151E3F"/>
<path d="M19.33 37.59H5.10997C2.54737 37.59 0.469971 39.6674 0.469971 42.23V42.24C0.469971 44.8026 2.54737 46.88 5.10997 46.88H19.33C21.8926 46.88 23.97 44.8026 23.97 42.24V42.23C23.97 39.6674 21.8926 37.59 19.33 37.59Z" fill="#151E3F"/>
<path d="M42.35 18.85H4.64C2.0774 18.85 0 20.9274 0 23.49V23.5C0 26.0626 2.0774 28.14 4.64 28.14H42.35C44.9126 28.14 46.99 26.0626 46.99 23.5V23.49C46.99 20.9274 44.9126 18.85 42.35 18.85Z" fill="#151E3F"/>
</g>
<defs>
<clipPath id="clip0_17_32">
<rect width="46.99" height="46.88" fill="white"/>
</clipPath>
</defs>
</svg>
